# Created with Anim8or 1.00
# Object "SnowPile":

mtllib snowPile.mtl

# Shape "mesh01":
g mesh01
# No. points 69:
v 0 -0.21947 0
v -29.852 0.37964 2.0861
v -23.322 4.3338 0.79847
v -18.179 11.283 -1.0054
v -17.22 4.2139 0.38072
v -17.887 -0.21948 1.3419
v -35.209 -0.33930 2.6224
v 0 -0.21947 0
v -24.809 0.37964 16.732
v -19.798 4.3338 12.353
v -16.246 11.283 8.2189
v -29.181 -0.33930 19.876
v 0 -0.21947 0
v -13.119 0.37964 26.895
v -10.97 4.3338 20.597
v -9.9604 11.283 15.241
v -15.333 -0.33930 31.803
v 0 -0.21947 0
v 2.0861 0.37964 29.852
v 0.79847 4.3338 23.322
v 0.12439 10.8063 16.8579
v 2.6224 -0.33930 35.209
v 0 -0.21947 0
v 16.732 0.37964 24.809
v 12.353 4.3338 19.798
v 8.2189 11.283 16.246
v 19.876 -0.33930 29.181
v 0 -0.21947 0
v 26.895 0.37964 13.119
v 20.597 4.3338 10.97
v 15.241 11.283 9.9604
v 31.803 -0.33930 15.333
v 0 -0.21947 0
v 29.852 0.37964 -2.0861
v 23.322 4.3338 -0.79847
v 18.179 11.283 1.0054
v 35.209 -0.33930 -2.6224
v 0 -0.21947 0
v 24.809 0.37964 -16.732
v 19.798 4.3338 -12.353
v 16.246 11.283 -8.2189
v 14.723 4.2139 -8.9399
v 14.819 -0.21948 -10.105
v 29.181 -0.33930 -19.876
v 0 -0.21947 0
v 13.119 0.37964 -26.895
v 10.97 4.3338 -20.597
v 9.9604 11.283 -15.241
v 7.7811 -0.21948 -16.161
v 15.333 -0.33930 -31.803
v 0 -0.21947 0
v -2.0861 0.37964 -29.852
v -0.76055 3.63766 -22.4735
v 0.96719 10.9254 -17.4079
v -2.6224 -0.33930 -35.209
v 0 -0.21947 0
v -16.732 0.37964 -24.809
v -12.353 4.3338 -19.798
v -8.2189 11.283 -16.246
v -8.9399 4.2139 -14.723
v -19.876 -0.33930 -29.181
v -19.876 -0.33930 -29.181
v 0 -0.21947 0
v -26.895 0.37964 -13.119
v -20.597 4.3338 -10.97
v -15.241 11.283 -9.9604
v -15.104 4.2139 -8.2805
v -16.161 -0.21948 -7.7811
v -31.803 -0.33930 -15.333

# No. normals 68:
vn -0.49040 0.85857 0.14957
vn -0.34997 0.85853 0.37476
vn -0.11567 0.85853 0.49955
vn 0.14957 0.85857 0.49040
vn 0.37476 0.85853 0.34997
vn 0.49955 0.85853 0.11567
vn 0.49040 0.85857 -0.14957
vn 0.34997 0.85853 -0.37476
vn 0.03318 0.85151 -0.52329
vn -0.03684 0.91660 -0.39811
vn -0.37476 0.85853 -0.34997
vn -0.49955 0.85853 -0.11567
vn -0.77264 0.61385 0.16191
vn -0.58819 0.61386 0.52650
vn -0.09618 0.61636 0.78157
vn 0.01179 0.70721 0.70690
vn 0.52650 0.61386 0.58819
vn 0.75008 0.61386 0.24609
vn 0.77264 0.61385 -0.16191
vn 0.58819 0.61386 -0.52650
vn 0.16105 0.61706 -0.77026
vn -0.07975 0.58161 -0.80955
vn -0.52650 0.61386 -0.58819
vn -0.75008 0.61386 -0.24609
vn 0.71133 0.17552 0.68059
vn 0.95634 0.17555 0.23364
vn -0.49939 0.86621 0.01710
vn -0.64903 0.76065 -0.01299
vn -0.77776 0.62708 -0.04300
vn 0.95634 0.17555 0.23364
vn 0.95634 0.17555 0.23364
vn -0.42393 0.86621 0.26450
vn -0.56858 0.76065 0.31325
vn -0.69508 0.62708 0.35162
vn -0.23490 0.86619 0.44106
vn -0.29922 0.76684 0.56783
vn -0.35613 0.64018 0.68069
vn 0.01710 0.86621 0.49939
vn -0.01287 0.77506 0.63175
vn -0.04233 0.66390 0.74662
vn 0.26450 0.86621 0.42393
vn 0.27510 0.78656 0.55285
vn 0.27938 0.68566 0.67217
vn 0.44106 0.86619 0.23490
vn 0.55558 0.76065 0.33577
vn 0.65205 0.62709 0.42613
vn 0.49939 0.86621 -0.01710
vn 0.64903 0.76065 0.01299
vn 0.77776 0.62708 0.04300
vn 0.42393 0.86621 -0.26450
vn 0.56858 0.76065 -0.31325
vn 0.69508 0.62708 -0.35162
vn 0.19458 0.86842 -0.45606
vn 0.29486 0.76579 -0.57150
vn 0.38649 0.63496 -0.66892
vn -0.00184 0.88681 -0.46214
vn 0.02000 0.76439 -0.64444
vn 0.04096 0.60395 -0.79597
vn -0.20896 0.90117 -0.37977
vn -0.26762 0.78106 -0.56420
vn -0.31305 0.61731 -0.72175
vn 0.71133 0.17552 0.68059
vn 0.71133 0.17552 0.68059
vn -0.44106 0.86619 -0.23490
vn -0.55558 0.76065 -0.33577
vn -0.65205 0.62709 -0.42613
vn 0.86231 0.18153 0.47273
vn 0.86231 0.18153 0.47273

# No. texture coordinates 42:
vt 0.11111 0
vt 0.11111 0.08333
vt 0.11111 0.16667
vt 0.11111 0.25000
vt 0.11111 0.33333
vt 0.11111 0.41667
vt 0.11111 0.50000
vt 0.11111 0.58333
vt 0.11111 0.66667
vt 0.11111 0.75000
vt 0.11111 0.83333
vt 0.11111 0.91667
vt 0.11111 1
vt 0.22222 0
vt 0.22222 0.08333
vt 0.22222 0.16667
vt 0.22222 0.25000
vt 0.22222 0.33333
vt 0.22222 0.41667
vt 0.22222 0.50000
vt 0.22222 0.58333
vt 0.22222 0.66667
vt 0.22222 0.75000
vt 0.22222 0.83333
vt 0.22222 0.91667
vt 0.22222 1
vt 0.33333 0
vt 0.33333 0.08333
vt 0.33333 0.16667
vt 0.33333 0.25000
vt 0.33333 0.33333
vt 0.33333 0.41667
vt 0.33333 0.50000
vt 0.33333 0.58333
vt 0.33333 0.66667
vt 0.33333 0.75000
vt 0.33333 0.83333
vt 0.33333 0.91667
vt 0.33333 1
vt 0.44444 0.83333
vt 0.44444 0.91667
vt 0.44444 1

# No. faces 26:

usemtl snow

f 9/2/32 10/15/33 3/14/28 2/1/27
f 14/3/35 15/16/36 10/15/33 9/2/32
f 19/4/38 20/17/39 15/16/36 14/3/35
f 24/5/41 25/18/42 20/17/39 19/4/38
f 29/6/44 30/19/45 25/18/42 24/5/41
f 34/7/47 35/20/48 30/19/45 29/6/44
f 39/8/50 40/21/51 35/20/48 34/7/47
f 46/9/53 47/22/54 40/21/51 39/8/50
f 52/10/56 53/23/57 47/22/54 46/9/53
f 57/11/59 58/24/60 53/23/57 52/10/56
f 64/12/64 65/25/65 58/24/60 57/11/59
f 2/13/27 3/26/28 65/25/65 64/12/64
f 10/15/33 11/28/34 4/27/29 3/14/28
f 15/16/36 16/29/37 11/28/34 10/15/33
f 20/17/39 21/30/40 16/29/37 15/16/36
f 25/18/42 26/31/43 21/30/40 20/17/39
f 30/19/45 31/32/46 26/31/43 25/18/42
f 35/20/48 36/33/49 31/32/46 30/19/45
f 40/21/51 41/34/52 36/33/49 35/20/48
f 47/22/54 48/35/55 41/34/52 40/21/51
f 53/23/57 54/36/58 48/35/55 47/22/54
f 58/24/60 59/37/61 54/36/58 53/23/57
f 65/25/65 66/38/66 59/37/61 58/24/60
f 3/26/28 4/39/29 66/38/66 65/25/65
f 66/38/67 67/41/68 60/40/63 59/37/62
f 4/39/30 5/42/31 67/41/68 66/38/67

# Shape "mesh02":
g mesh02
# No. points 56:
v -18.647 10.493 1.9351
v -16.011 15.329 1.4408
v -8.1685 19.353 0.33214
v 7.6878 20.026 -1.6487
v 15.454 15.639 -2.4541
v 18.401 10.911 -2.6526
v -18.647 10.493 1.9351
v -18.647 10.493 1.9351
v -18.644 8.2642 7.2134
v -16.008 12.73 9.351
v -8.164 16.775 10.532
v 7.6925 18.303 9.1925
v 15.458 14.846 6.1797
v 18.403 10.803 3.5064
v -18.644 8.2642 7.2134
v -18.644 8.2642 7.2134
v -18.642 3.8213 10.557
v -16.005 6.7196 14.754
v -8.1603 9.703 17.909
v 7.6966 11.675 17.571
v 15.461 10.074 13.159
v 18.406 7.8003 8.7279
v -18.642 3.8212 10.557
v -18.642 3.8212 10.557
v -18.642 -1.6453 11.069
v -16.004 -1.0908 16.202
v -8.1584 0.03091 20.487
v 7.699 1.9188 21.243
v 15.463 2.6031 16.615
v -18.642 -1.6453 11.07
v -18.642 -1.6453 11.07
v -18.651 -3.8185 -10.572
v -18.651 1.648 -11.085
v -8.1757 -0.02970 -20.493
v 7.6814 -1.9199 -21.237
v 15.45 -2.6054 -16.602
v 18.398 -2.7095 -11.598
v -18.651 1.648 -11.085
v -18.651 6.6733 -8.6292
v -16.017 8.611 -13.319
v -8.1753 9.6505 -17.58
v 7.6814 8.3505 -19.217
v 15.449 5.5634 -15.607
v 18.398 3.1097 -11.373
v -18.651 6.6733 -8.6292
v -18.651 6.6733 -8.6292
v -18.649 9.9109 -3.8636
v -16.015 13.822 -6.8571
v -8.1727 16.745 -9.9578
v 7.6837 16.383 -12.047
v 15.451 12.241 -10.429
v 18.399 8.0953 -8.0989
v -18.649 9.9109 -3.8636
v -18.649 9.9109 -3.8636
v -18.647 0.00138 -0.00751
v -0.62410 9.21709 -18.7021

# No. normals 80:
vn -0.88107 0.44925 0.14794
vn -0.88677 0.30875 0.34395
vn -0.88175 0.36732 -0.29594
vn -0.87848 0.47016 -0.08496
vn -0.47300 0.85415 0.21609
vn -0.48384 0.63163 0.60576
vn -0.47665 0.64357 -0.59885
vn -0.46974 0.85579 -0.21671
vn -0.08163 0.98430 0.15647
vn -0.08401 0.78148 0.61825
vn -0.08623 0.35092 0.93243
vn -0.08109 0.94066 -0.32952
vn 0.49650 0.86442 0.07917
vn 0.50588 0.71217 0.48672
vn 0.51594 0.35977 0.77742
vn 0.50632 0.52834 -0.68154
vn 0.49667 0.79841 -0.34038
vn 0.84878 0.52867 0.00899
vn 0.85415 0.45101 0.25887
vn 0.85615 0.28353 -0.43200
vn 0.84980 0.46810 -0.24232
vn 0.06661 -0.99763 -0.01752
vn 0.06833 -0.86484 -0.49738
vn 0.06849 -0.54765 0.83390
vn 0.06674 -0.88634 0.45821
vn 1 0.00010 -0.00053
vn 1 0.00007 -0.00050
vn 1 0.00003 -0.00044
vn 1 0.00007 -0.00035
vn -0.08280 0.66365 -0.74345
vn -0.88585 0.46288 0.03171
vn -0.71662 0.69727 0.01654
vn -0.29066 0.95573 -0.04566
vn 0.22395 0.96754 -0.11711
vn 0.70534 0.69692 -0.12959
vn 0.85648 0.50260 -0.11765
vn 0.06876 -0.97141 0.22723
vn 0.06876 -0.97141 0.22723
vn 1 0.00008 -0.00044
vn -0.89042 0.38179 0.24776
vn -0.72345 0.59576 0.34882
vn -0.29599 0.85741 0.42100
vn 0.22632 0.90404 0.36261
vn 0.70927 0.67019 0.21859
vn 0.85885 0.49409 0.13509
vn 0.06967 -0.96150 -0.26582
vn 0.06967 -0.96150 -0.26582
vn 1 0.00009 -0.00051
vn -0.88677 0.30875 0.34395
vn -0.71596 0.49122 0.49609
vn -0.22856 0.61641 0.75353
vn 0.23170 0.59978 0.76588
vn 0.65679 0.53320 0.53322
vn 0.85415 0.45101 0.25887
vn 0.06833 -0.86484 -0.49738
vn 0.06833 -0.86484 -0.49738
vn 1 0.00007 -0.00050
vn -0.08623 0.35092 0.93243
vn 0.22606 0.37388 0.89951
vn 0.51594 0.35977 0.77742
vn -0.88175 0.36732 -0.29594
vn -0.70929 0.52784 -0.46722
vn -0.28611 0.66852 -0.68646
vn 0.22226 0.62556 -0.74785
vn 0.70307 0.41894 -0.57462
vn 0.85615 0.28353 -0.43200
vn 0.06849 -0.54765 0.83390
vn 0.06849 -0.54765 0.83390
vn 1 0.00003 -0.00044
vn -0.88624 0.42165 -0.19178
vn -0.71780 0.61974 -0.31731
vn -0.29226 0.81698 -0.49712
vn 0.22683 0.79236 -0.56632
vn 0.71054 0.54515 -0.44491
vn 0.86055 0.37915 -0.34015
vn 0.06989 -0.74109 0.66776
vn 0.06989 -0.74109 0.66776
vn 1 0.00005 -0.00040
vn 1 0.00007 -0.00045
vn -0.08280 0.66365 -0.74345

# No. texture coordinates 58:
vt 0.11111 0
vt 0.11111 0.08333
vt 0.11111 0.16667
vt 0.11111 0.83333
vt 0.11111 0.91667
vt 0.11111 1
vt 0.22222 0
vt 0.22222 0.08333
vt 0.22222 0.16667
vt 0.22222 0.83333
vt 0.22222 0.91667
vt 0.22222 1
vt 0.33333 0
vt 0.33333 0.08333
vt 0.33333 0.16667
vt 0.33333 0.25000
vt 0.33333 0.83333
vt 0.33333 0.91667
vt 0.33333 1
vt 0.44444 0
vt 0.44444 0.08333
vt 0.44444 0.16667
vt 0.44444 0.25000
vt 0.44444 0.83333
vt 0.44444 0.91667
vt 0.44444 1
vt 0.55556 0
vt 0.55556 0.08333
vt 0.55556 0.16667
vt 0.55556 0.25000
vt 0.55556 0.83333
vt 0.55556 0.91667
vt 0.55556 1
vt 0.66667 0
vt 0.66667 0.08333
vt 0.66667 0.16667
vt 0.66667 0.83333
vt 0.66667 0.91667
vt 0.66667 1
vt 0.77778 0
vt 0.77778 0.08333
vt 0.77778 0.16667
vt 0.77778 0.83333
vt 0.77778 0.91667
vt 0.77778 1
vt 1 0
vt 0.88889 0.08333
vt 0.88889 0
vt 1 0.08333
vt 0.88889 0.16667
vt 0.88889 0.08333
vt 1 0.83333
vt 0.88889 0.91667
vt 0.88889 0.83333
vt 1 0.91667
vt 0.88889 1
vt 0.88889 0.91667
vt 0.38889 0.83333

# No. faces 30:

usemtl snow

f 78/44/108 79/50/109 71/49/100 70/43/99
f 86/45/117 87/51/118 79/50/109 78/44/108
f 116/47/138 117/53/139 109/52/130 108/46/129
f 70/48/99 71/54/100 117/53/139 116/47/138
f 79/50/109 80/56/110 72/55/101 71/49/100
f 87/51/118 88/57/119 80/56/110 79/50/109
f 117/53/139 118/60/140 110/59/131 109/52/130
f 71/54/100 72/61/101 118/60/140 117/53/139
f 80/56/110 81/63/111 73/62/102 72/55/101
f 88/57/119 89/64/120 81/63/111 80/56/110
f 96/58/126 97/65/127 89/64/120 88/57/119
f 72/61/101 73/68/102 119/67/141 118/60/140
f 81/63/111 82/70/112 74/69/103 73/62/102
f 89/64/120 90/71/121 82/70/112 81/63/111
f 97/65/127 98/72/128 90/71/121 89/64/120
f 119/67/141 120/74/142 112/73/133 111/66/132
f 73/68/102 74/75/103 120/74/142 119/67/141
f 82/70/112 83/77/113 75/76/104 74/69/103
f 90/71/121 91/78/122 83/77/113 82/70/112
f 120/74/142 121/80/143 113/79/134 112/73/133
f 74/75/103 75/81/104 121/80/143 120/74/142
f 77/82/106 75/76/105 83/77/114 85/83/115
f 85/83/115 83/77/114 91/78/123 93/84/124
f 115/85/136 113/79/135 121/80/144 123/86/145
f 123/86/145 121/80/144 75/81/105 77/87/106
f 77/90/107 85/89/116 124/88/147
f 85/93/116 93/92/125 124/91/147
f 115/96/137 123/95/146 124/94/147
f 123/99/146 77/98/107 124/97/147
f 118/60/140 119/67/141 111/66/132 125/100/148 110/59/131

# End of Object "SnowPile"
